<svg xmlns="http://www.w3.org/2000/svg" style="display:none">

  <!-- 1. icon-macrame: decorative knot with two interlinked curved loops -->
  <symbol id="icon-macrame" viewBox="0 0 48 48" stroke="currentColor" stroke-width="1.5" fill="none" stroke-linecap="round" stroke-linejoin="round">
    <path d="M16 18c-6-4-8 2-4 6s8 2 8-2"/>
    <path d="M32 18c6-4 8 2 4 6s-8 2-8-2"/>
    <path d="M20 24c0 4-2 10-4 14"/>
    <path d="M28 24c0 4 2 10 4 14"/>
    <path d="M24 24c0 4 0 10 0 14"/>
    <circle cx="24" cy="14" r="3"/>
  </symbol>

  <!-- 2. icon-pintura: paintbrush at angle with color dot at tip -->
  <symbol id="icon-pintura" viewBox="0 0 48 48" stroke="currentColor" stroke-width="1.5" fill="none" stroke-linecap="round" stroke-linejoin="round">
    <path d="M34 8l-16 16-2 6 6-2 16-16-4-4z"/>
    <path d="M16 24l-4 4c-2 2-2 4 0 6s4 2 6 0l4-4"/>
    <circle cx="12" cy="36" r="2.5" fill="currentColor"/>
  </symbol>

  <!-- 3. icon-bordado: sewing needle with thread loop -->
  <symbol id="icon-bordado" viewBox="0 0 48 48" stroke="currentColor" stroke-width="1.5" fill="none" stroke-linecap="round" stroke-linejoin="round">
    <line x1="14" y1="34" x2="34" y2="14"/>
    <circle cx="36" cy="12" r="2"/>
    <path d="M14 34c-4 0-6-4-4-7s6-2 6 1"/>
    <path d="M14 34c0 0-2 4 1 5s4-1 4-1"/>
  </symbol>

  <!-- 4. icon-mosaico: 4 offset square tiles -->
  <symbol id="icon-mosaico" viewBox="0 0 48 48" stroke="currentColor" stroke-width="1.5" fill="none" stroke-linecap="round" stroke-linejoin="round">
    <rect x="10" y="10" width="12" height="12" rx="1"/>
    <rect x="26" y="10" width="12" height="12" rx="1"/>
    <rect x="10" y="26" width="12" height="12" rx="1"/>
    <rect x="26" y="26" width="12" height="12" rx="1" transform="rotate(6 32 32)"/>
  </symbol>

  <!-- 5. icon-ropa: simple t-shirt outline -->
  <symbol id="icon-ropa" viewBox="0 0 48 48" stroke="currentColor" stroke-width="1.5" fill="none" stroke-linecap="round" stroke-linejoin="round">
    <path d="M18 8l-8 4-4 8 6 3 2-6v23h20V17l2 6 6-3-4-8-8-4"/>
    <path d="M18 8c0 3 3 6 6 6s6-3 6-6"/>
  </symbol>

  <!-- 6. icon-decoupage: jar with decorative flower -->
  <symbol id="icon-decoupage" viewBox="0 0 48 48" stroke="currentColor" stroke-width="1.5" fill="none" stroke-linecap="round" stroke-linejoin="round">
    <rect x="14" y="16" width="20" height="24" rx="3"/>
    <path d="M16 16V13h16v3"/>
    <circle cx="24" cy="28" r="3"/>
    <circle cx="24" cy="23" r="1.5"/>
    <circle cx="28" cy="27" r="1.5"/>
    <circle cx="26" cy="32" r="1.5"/>
    <circle cx="20" cy="27" r="1.5"/>
    <circle cx="22" cy="32" r="1.5"/>
  </symbol>

  <!-- 7. icon-amigas: two female figures side by side -->
  <symbol id="icon-amigas" viewBox="0 0 48 48" stroke="currentColor" stroke-width="1.5" fill="none" stroke-linecap="round" stroke-linejoin="round">
    <circle cx="18" cy="14" r="4"/>
    <circle cx="30" cy="14" r="4"/>
    <path d="M10 38v-8c0-4 3-7 8-7"/>
    <path d="M26 23c5 0 8 3 8 7v8"/>
    <path d="M18 23c3 0 5 1 6 3"/>
    <path d="M30 23c-3 0-5 1-6 3"/>
  </symbol>

  <!-- 8. icon-team: three people group, center higher -->
  <symbol id="icon-team" viewBox="0 0 48 48" stroke="currentColor" stroke-width="1.5" fill="none" stroke-linecap="round" stroke-linejoin="round">
    <circle cx="24" cy="11" r="4"/>
    <circle cx="12" cy="16" r="3.5"/>
    <circle cx="36" cy="16" r="3.5"/>
    <path d="M17 38v-10c0-4 3-7 7-7s7 3 7 7v10"/>
    <path d="M5 38v-7c0-3 2-6 7-6 2 0 3.5.8 5 2"/>
    <path d="M43 38v-7c0-3-2-6-7-6-2 0-3.5.8-5 2"/>
  </symbol>

  <!-- 9. icon-cumple: gift box with ribbon/bow -->
  <symbol id="icon-cumple" viewBox="0 0 48 48" stroke="currentColor" stroke-width="1.5" fill="none" stroke-linecap="round" stroke-linejoin="round">
    <rect x="8" y="20" width="32" height="20" rx="2"/>
    <rect x="6" y="16" width="36" height="6" rx="2"/>
    <line x1="24" y1="16" x2="24" y2="40"/>
    <path d="M24 16c-2-6-8-8-10-6s0 6 10 6"/>
    <path d="M24 16c2-6 8-8 10-6s0 6-10 6"/>
  </symbol>

  <!-- 10. icon-familias: adult + child holding hands -->
  <symbol id="icon-familias" viewBox="0 0 48 48" stroke="currentColor" stroke-width="1.5" fill="none" stroke-linecap="round" stroke-linejoin="round">
    <circle cx="18" cy="12" r="4.5"/>
    <path d="M10 40v-14c0-4 3-7 8-7s8 3 8 7"/>
    <circle cx="34" cy="18" r="3.5"/>
    <path d="M28 40v-10c0-3 2-6 6-6s6 3 6 6v10"/>
    <path d="M26 27l2-1"/>
  </symbol>

  <!-- 11. icon-taller: person with paintbrush -->
  <symbol id="icon-taller" viewBox="0 0 48 48" stroke="currentColor" stroke-width="1.5" fill="none" stroke-linecap="round" stroke-linejoin="round">
    <circle cx="20" cy="12" r="4.5"/>
    <path d="M12 40v-14c0-4 3-7 8-7s8 3 8 7v14"/>
    <line x1="32" y1="12" x2="38" y2="30"/>
    <path d="M38 30l1 4-3 1"/>
  </symbol>

  <!-- 12. icon-kit: open box with + symbol -->
  <symbol id="icon-kit" viewBox="0 0 48 48" stroke="currentColor" stroke-width="1.5" fill="none" stroke-linecap="round" stroke-linejoin="round">
    <path d="M8 18l16-8 16 8v20l-16 8-16-8z"/>
    <path d="M8 18l16 8 16-8"/>
    <line x1="24" y1="26" x2="24" y2="46"/>
    <line x1="20" y1="15" x2="28" y2="15"/>
    <line x1="24" y1="11" x2="24" y2="19"/>
  </symbol>

  <!-- 13. icon-calma: botanical leaf sprig -->
  <symbol id="icon-calma" viewBox="0 0 48 48" stroke="currentColor" stroke-width="1.5" fill="none" stroke-linecap="round" stroke-linejoin="round">
    <path d="M24 40V16"/>
    <path d="M24 28c-6-2-10-8-8-14 6 0 10 6 8 14"/>
    <path d="M24 22c6-2 9-7 7-12-5 0-9 5-7 12"/>
    <path d="M24 34c-5-1-8-5-7-10 5 0 8 4 7 10"/>
  </symbol>

  <!-- 14. icon-crear: open hand with fingers spread -->
  <symbol id="icon-crear" viewBox="0 0 48 48" stroke="currentColor" stroke-width="1.5" fill="none" stroke-linecap="round" stroke-linejoin="round">
    <path d="M20 40v-12l-6-10"/>
    <path d="M18 18l-4-10"/>
    <path d="M22 16V6"/>
    <path d="M26 16V6"/>
    <path d="M30 18l3-9"/>
    <path d="M28 40v-12l6-10"/>
    <path d="M16 28c-2 0-4 2-4 5v7h24v-7c0-3-2-5-4-5"/>
  </symbol>

  <!-- 15. icon-conectar: heart outline -->
  <symbol id="icon-conectar" viewBox="0 0 48 48" stroke="currentColor" stroke-width="1.5" fill="none" stroke-linecap="round" stroke-linejoin="round">
    <path d="M24 40L10 26c-4-4-4-10 0-14 4-4 10-4 14 0 4-4 10-4 14 0 4 4 4 10 0 14z"/>
  </symbol>

  <!-- 16. icon-descubrir: sparkle/starburst -->
  <symbol id="icon-descubrir" viewBox="0 0 48 48" stroke="currentColor" stroke-width="1.5" fill="none" stroke-linecap="round" stroke-linejoin="round">
    <circle cx="24" cy="24" r="2"/>
    <line x1="24" y1="6" x2="24" y2="16"/>
    <line x1="24" y1="32" x2="24" y2="42"/>
    <line x1="6" y1="24" x2="16" y2="24"/>
    <line x1="32" y1="24" x2="42" y2="24"/>
    <line x1="12" y1="12" x2="18" y2="18"/>
    <line x1="30" y1="30" x2="36" y2="36"/>
    <line x1="36" y1="12" x2="30" y2="18"/>
    <line x1="18" y1="30" x2="12" y2="36"/>
  </symbol>

</svg>
